<svg id="Capa_1" enable-background="new 0 0 512 512" height="512" viewBox="0 0 512 512" width="512" xmlns="http://www.w3.org/2000/svg"><g><g><g><g><g><g><g><g><g><g><g><g><g><g><g><g><g><g><g><g><g><circle cx="256" cy="256" fill="#65b1fc" r="256"/></g></g></g></g></g></g></g></g></g></g></g></g></g></g></g></g></g></g></g></g><path d="m512 256c0-10.239-.601-20.337-1.77-30.261l-113.895-113.896-264.537 8.265-54.356 277.447 103.162 103.162c23.835 7.335 49.155 11.283 75.396 11.283 141.385 0 256-114.615 256-256z" fill="#4a7aff"/><g><path d="m407.832 199.509h-30v-58.727c0-6.772-5.51-12.282-12.281-12.282h-219.101c-6.772 0-12.282 5.51-12.282 12.282v58.727h-30v-58.727c0-23.314 18.968-42.282 42.282-42.282h219.101c23.313 0 42.281 18.968 42.281 42.282z" fill="#e9edf5"/></g><g><path d="m365.551 98.5h-109.431v30h109.43c6.771 0 12.281 5.51 12.281 12.282v58.727h30v-58.727c.001-23.314-18.967-42.282-42.28-42.282z" fill="#cdd2e1"/></g><g><path d="m77.442 173.151h357.116v224.404h-357.116z" fill="#fff"/></g><g><path d="m256.12 173.151h178.437v224.404h-178.437z" fill="#e9edf5"/></g><g><g><circle cx="166.082" cy="312.427" fill="#707789" r="64.614"/></g><g><circle cx="166.082" cy="312.427" fill="#9196aa" r="34.284"/></g><g><circle cx="345.918" cy="312.427" fill="#555a66" r="64.614"/></g><g><circle cx="345.918" cy="312.427" fill="#707789" r="34.284"/></g></g><g><path d="m101.467 204.232h309.065v24.434h-309.065z" fill="#9196aa"/></g><g><path d="m256.12 204.232h154.412v24.434h-154.412z" fill="#707789"/></g></g></svg>