<svg id="Layer_1" enable-background="new 0 0 512 512" height="512" viewBox="0 0 512 512" width="512" xmlns="http://www.w3.org/2000/svg"><g><g><g id="XMLID_50_"><g><g id="XMLID_1501_"><g id="XMLID_1502_"><g id="XMLID_1503_"><g id="XMLID_1504_"><g id="XMLID_1505_"><g id="XMLID_1506_"><g id="XMLID_1507_"><g id="XMLID_1508_"><g id="XMLID_1509_"><g id="XMLID_1510_"><g id="XMLID_1511_"><g id="XMLID_1512_"><g id="XMLID_1513_"><g id="XMLID_1514_"><circle cx="256" cy="256" fill="#5eefee" r="256"/></g></g></g></g></g></g></g></g></g></g></g></g></g></g></g></g><path d="m512 256c0-35.06-7.055-68.469-19.811-98.897l-25.104-25.103-423.226 59.41 103.641 100.554-15.38 61.536 50.88 49.5-8.865 34.385 80.871 74.603c.332.001.662.013.994.013 141.385-.001 256-114.616 256-256.001z" fill="#54c9fc"/><g><g><g><g><path d="m430.233 189.407h36.852v95.343h-36.852z" fill="#fedd55"/></g></g><g><path d="m132.12 187.748h246.699v165.752h-246.699z" fill="#57555c"/><path d="m255.47 187.742h123.354v165.751h-123.354z" fill="#48464c"/><path d="m266.976 434.694 54.024-146.063-146.064 54.024 33.427 33.427-35.208 35.208c-6.955 6.955-6.955 18.231 0 25.185 6.955 6.955 18.231 6.955 25.185 0l35.208-35.208z" fill="#fff"/><path d="m321 288.63-54.02 146.06-11.51-11.51v-110.31z" fill="#eae1dc"/></g><g><path d="m43.859 132h423.227v59.41h-423.227z" fill="#8e8382"/><path d="m255.472 132h211.613v59.41h-211.613z" fill="#776d6b"/></g><path d="m478.866 327.457h-60.414v-32.915c0-15.188 12.312-27.5 27.5-27.5h5.414c15.188 0 27.5 12.312 27.5 27.5z" fill="#fd9126"/></g></g></g></g></svg>