<svg id="Capa_1" enable-background="new 0 0 512 512" height="512" viewBox="0 0 512 512" width="512" xmlns="http://www.w3.org/2000/svg"><circle cx="256" cy="256" fill="#00edff" r="256"/><path d="m511.432 273.184-72.617-72.617-6.145 7.786-68.852-68.853-291.202 200.761 171.466 171.466c3.95.181 7.923.273 11.917.273 135.611 0 246.594-105.444 255.433-238.816z" fill="#0ac0ea"/><path d="m366.152 361.072c53.407 0 96.702-43.295 96.702-96.702 0-49.183-36.719-89.789-84.238-95.904-17.693-49.389-64.908-84.725-120.382-84.725-70.157 0-127.106 56.514-127.828 126.5-1.892-.142-3.797-.238-5.725-.238-41.717 0-75.535 33.818-75.535 75.535s33.818 75.535 75.535 75.535h241.471z" fill="#4a7aff"/><path d="m378.616 168.465c-17.693-49.389-64.908-84.725-120.383-84.725-.882 0-1.76.015-2.638.033v277.298h110.557c53.407 0 96.702-43.295 96.702-96.702 0-49.183-36.718-89.789-84.238-95.904z" fill="#0053bf"/><path d="m319.59 340.261h-30v-77.928c0-37.568 30.564-68.133 68.133-68.133s68.133 30.564 68.133 68.133h-30c0-21.026-17.106-38.133-38.133-38.133s-38.133 17.106-38.133 38.133z" fill="#fff"/><path d="m357.976 194.206v30c20.91.138 37.879 17.185 37.879 38.126h30c.001-37.483-30.427-67.988-67.879-68.126z" fill="#e9edf5"/><path d="m317.52 407.507h-124.21c-16.583 0-30.027-13.443-30.027-30.027v-96.829h184.263v96.829c0 16.584-13.443 30.027-30.026 30.027z" fill="#ffce00"/><path d="m255.595 280.651v126.856h61.924c16.583 0 30.026-13.443 30.026-30.027v-96.829z" fill="#fdba12"/><path d="m256.532 362.864h-2.234c-8.098 0-14.664-6.565-14.664-14.664v-25.725c0-8.098 6.565-14.664 14.664-14.664h2.234c8.098 0 14.664 6.565 14.664 14.664v25.725c-.001 8.099-6.566 14.664-14.664 14.664z" fill="#333940"/><path d="m256.532 307.812h-.936v55.052h.936c8.099 0 14.664-6.565 14.664-14.664v-25.725c-.001-8.098-6.566-14.663-14.664-14.663z" fill="#23272b"/></svg>