<svg id="Capa_1" enable-background="new 0 0 512 512" height="512" viewBox="0 0 512 512" width="512" xmlns="http://www.w3.org/2000/svg"><g><g><g><g><g><g><g><circle cx="256" cy="256" fill="#ffce00" r="256"/></g></g></g></g></g></g><path d="m512 256c0-10.734-.661-21.313-1.944-31.7l-91.281-91.281-332.336 269.075 100.476 100.476c21.977 6.144 45.147 9.43 69.085 9.43 141.385 0 256-114.615 256-256z" fill="#ffa300"/><g><g><g><path d="m86.439 338.051h205.855v64.042h-205.855z" fill="#555a66"/></g><g><path d="m189.253 338.051h103.041v64.042h-103.041z" fill="#333940"/></g><g><path d="m86.439 278.934h205.855v64.042h-205.855z" fill="#636978"/></g><g><path d="m189.253 278.934h103.041v64.042h-103.041z" fill="#414952"/></g><g><path d="m86.439 219.817h205.855v64.042h-205.855z" fill="#555a66"/></g><g><path d="m189.253 219.817h103.041v64.042h-103.041z" fill="#333940"/></g><g><path d="m86.439 160.7h205.855v64.042h-205.855z" fill="#636978"/></g><g><path d="m189.253 160.7h103.041v64.042h-103.041z" fill="#414952"/></g></g><g><circle cx="113.759" cy="193.841" fill="#08ffe1" r="13.342"/></g><g><circle cx="154.422" cy="193.841" fill="#08ffe1" r="13.342"/></g><g><circle cx="113.759" cy="313.923" fill="#08ffe1" r="13.342"/></g><g><circle cx="154.422" cy="313.923" fill="#08ffe1" r="13.342"/></g></g><g><g><path d="m297.718 100.174c10.649-3.073 21.901-4.719 33.539-4.719 18.992 0 36.959 4.385 52.945 12.197l64.382 137.188c-12.859 52.859-60.511 92.101-117.327 92.101-16.774 0-32.749-3.421-47.265-9.602l-45.42-121.68z" fill="#7584f2"/></g><g><path d="m384.203 107.652c-15.986-7.813-33.954-12.197-52.945-12.197-.146 0-.292.007-.438.008v241.472c.146.001.292.006.438.006 56.816 0 104.468-39.242 117.327-92.101z" fill="#606aea"/></g><g><path d="m210.515 216.197c0 49.911 30.283 92.748 73.477 111.141 3.614-23.554 13.494-54.372 20.093-76.055 9.827-32.289-30.885-25.269-46.327-35.086-15.442-9.816 14.039-32.299 46.327-58.973 22.157-18.303 5.972-43.217-6.367-57.05-50.367 14.533-87.203 60.976-87.203 116.023z" fill="#2fddd0"/></g><g><path d="m384.203 107.652c-8.803 9.761-16.411 22.667-11.679 35.288 9.476 25.274 36.851 48.25 23.164 48.25-13.688 0-56.856-3.04-42.116 36.391 7.551 20.2 13.53 42.263 17.565 58.979 3.289 13.625 18.166 19.36 28.528 10.952 13.958-11.326 32.311-28.75 48.92-52.673 2.231-9.176 3.416-18.78 3.416-28.642-.001-47.693-27.653-88.927-67.798-108.545z" fill="#11bfae"/></g></g></g></svg>