<?xml version="1.0" encoding="iso-8859-1"?>
<!-- Generator: Adobe Illustrator 19.0.0, SVG Export Plug-In . SVG Version: 6.00 Build 0)  -->
<svg version="1.1" id="Capa_1" xmlns="http://www.w3.org/2000/svg" xmlns:xlink="http://www.w3.org/1999/xlink" x="0px" y="0px"
	 viewBox="0 0 512 512" style="enable-background:new 0 0 512 512;" xml:space="preserve">
<circle style="fill:#FFDC00;" cx="256" cy="256" r="256"/>
<path style="fill:#FFC000;" d="M512,256c0-9.861-0.577-19.585-1.663-29.156L408.186,124.693L103.814,201.9l164.044,170.765
	l-156.91,23.263l114.559,114.257C235.508,511.372,245.68,512,256,512C397.385,512,512,397.385,512,256z"/>
<rect x="103.81" y="124.69" style="fill:#333333;" width="304.37" height="77.21"/>
<rect x="255" y="124.69" style="fill:#1A1A1A;" width="153.19" height="77.21"/>
<rect x="353.99" y="149.19" style="fill:#8CC63F;" width="28.21" height="28.21"/>
<rect x="314.83" y="149.19" style="fill:#FFDC00;" width="28.21" height="28.21"/>
<rect x="103.81" y="217.4" style="fill:#333333;" width="304.37" height="77.21"/>
<rect x="255" y="217.4" style="fill:#1A1A1A;" width="153.19" height="77.21"/>
<rect x="353.99" y="241.9" style="fill:#8CC63F;" width="28.21" height="28.21"/>
<rect x="314.83" y="241.9" style="fill:#FFDC00;" width="28.21" height="28.21"/>
<rect x="103.81" y="310.1" style="fill:#1A1A1A;" width="304.37" height="77.21"/>
<rect x="353.99" y="334.6" style="fill:#8CC63F;" width="28.21" height="28.21"/>
<rect x="314.83" y="334.6" style="fill:#FFDC00;" width="28.21" height="28.21"/>
<circle style="fill:#0074A3;" cx="181.78" cy="325.06" r="100.19"/>
<path style="fill:#005C83;" d="M181.776,224.865c-0.037,0-0.073,0.001-0.109,0.001v200.386c0.036,0,0.073,0.001,0.109,0.001
	c55.336,0,100.194-44.859,100.194-100.194S237.112,224.865,181.776,224.865z"/>
<path style="fill:#FFFFFF;" d="M235.694,290.181l9.059-9.059c-5.179-7.409-11.631-13.862-19.04-19.04l-9.059,9.059
	c-6.436-4.172-13.666-7.221-21.414-8.875V249.45c-4.372-0.773-8.87-1.178-13.464-1.178s-9.092,0.405-13.464,1.178v12.816
	c-7.748,1.653-14.978,4.703-21.414,8.874l-9.059-9.059c-7.409,5.179-13.862,11.631-19.041,19.041l9.059,9.059
	c-4.172,6.436-7.221,13.667-8.874,21.414h-12.816c-0.773,4.372-1.178,8.87-1.178,13.464c0,4.593,0.405,9.092,1.178,13.464h12.816
	c1.653,7.748,4.703,14.978,8.874,21.414l-9.059,9.059c5.179,7.409,11.631,13.861,19.041,19.04l9.059-9.059
	c6.436,4.172,13.666,7.221,21.414,8.875v12.816c4.372,0.773,8.87,1.178,13.464,1.178s9.092-0.405,13.464-1.178v-12.816
	c7.748-1.653,14.978-4.703,21.414-8.875l9.059,9.059c7.409-5.179,13.862-11.631,19.04-19.041l-9.059-9.059
	c4.172-6.436,7.221-13.666,8.874-21.414h12.816c0.773-4.372,1.178-8.87,1.178-13.464c0-4.593-0.405-9.092-1.178-13.464h-12.816
	C242.915,303.848,239.866,296.617,235.694,290.181z M181.776,353.418c-15.662,0-28.359-12.697-28.359-28.359
	s12.697-28.359,28.359-28.359s28.359,12.697,28.359,28.359S197.438,353.418,181.776,353.418z"/>
<path style="fill:#E0E0E0;" d="M257.385,338.523c0.773-4.372,1.178-8.87,1.178-13.464c0-4.593-0.405-9.092-1.178-13.464h-12.816
	c-1.653-7.748-4.703-14.978-8.875-21.415l9.059-9.059c-5.179-7.409-11.631-13.861-19.041-19.04l-9.059,9.059
	c-6.436-4.172-13.666-7.221-21.414-8.875V249.45c-4.372-0.773-8.87-1.178-13.464-1.178c-0.037,0-0.073,0.002-0.109,0.002v48.429
	c0.036,0,0.073-0.003,0.109-0.003c15.662,0,28.359,12.697,28.359,28.359s-12.697,28.359-28.359,28.359
	c-0.037,0-0.073-0.003-0.109-0.003v48.429c0.036,0,0.073,0.002,0.109,0.002c4.593,0,9.092-0.405,13.464-1.178v-12.816
	c7.748-1.653,14.978-4.703,21.414-8.875l9.059,9.059c7.409-5.179,13.862-11.631,19.041-19.041l-9.059-9.058
	c4.172-6.436,7.221-13.666,8.875-21.414L257.385,338.523L257.385,338.523z"/>
<g>
</g>
<g>
</g>
<g>
</g>
<g>
</g>
<g>
</g>
<g>
</g>
<g>
</g>
<g>
</g>
<g>
</g>
<g>
</g>
<g>
</g>
<g>
</g>
<g>
</g>
<g>
</g>
<g>
</g>
</svg>
