<svg id="Capa_1" enable-background="new 0 0 512 512" height="512" viewBox="0 0 512 512" width="512" xmlns="http://www.w3.org/2000/svg"><g><g><g><g><g><g><g><g><g><g><circle cx="256" cy="256" fill="#7584f2" r="256"/></g></g></g></g></g></g></g></g></g><path d="m512 256c0-4.83-.134-9.629-.398-14.393l-103.796-103.796-190.239 73.864-99.21 178.718 121.08 121.08c5.476.35 11 .527 16.564.527 141.384 0 255.999-114.615 255.999-256z" fill="#4855b7"/><g><path d="m256 63.614c-106.252 0-192.386 86.134-192.386 192.386s86.134 192.386 192.386 192.386 192.386-86.134 192.386-192.386-86.134-192.386-192.386-192.386zm0 249.501c-31.544 0-57.115-25.572-57.115-57.115s25.571-57.115 57.115-57.115 57.115 25.572 57.115 57.115-25.571 57.115-57.115 57.115z" fill="#fff"/></g><g><path d="m448.386 256c0-106.212-86.069-192.32-192.266-192.385v135.273c31.488.065 56.995 25.609 56.995 57.112s-25.507 57.047-56.995 57.112v135.273c106.197-.065 192.266-86.173 192.266-192.385z" fill="#e9edf5"/></g><g><path d="m256 181.177c-41.324 0-74.823 33.5-74.823 74.823s33.499 74.823 74.823 74.823 74.823-33.5 74.823-74.823-33.499-74.823-74.823-74.823zm0 98.045c-12.825 0-23.222-10.397-23.222-23.222s10.397-23.222 23.222-23.222 23.222 10.397 23.222 23.222-10.397 23.222-23.222 23.222z" fill="#fe6a16"/></g><g><path d="m330.823 256c0-41.283-33.435-74.755-74.703-74.82v51.601c12.769.065 23.101 10.434 23.101 23.219s-10.332 23.153-23.101 23.219v51.601c41.268-.065 74.703-33.537 74.703-74.82z" fill="#f24500"/></g><g><g><g><g><g><g><g><g><g><path d="m256.813 413.253v-30c70.168 0 127.253-57.085 127.253-127.253h30c.001 86.71-70.543 157.253-157.253 157.253z" fill="#cdd2e1"/></g><g><path d="m128.747 256h-30c0-86.71 70.543-157.253 157.253-157.253v30c-70.168 0-127.253 57.085-127.253 127.253z" fill="#e9edf5"/></g></g></g></g></g></g></g></g></g></g></svg>