<svg id="Layer_1" enable-background="new 0 0 512 512" height="512" viewBox="0 0 512 512" width="512" xmlns="http://www.w3.org/2000/svg"><g><g id="XMLID_19_"><g id="XMLID_147_"><g id="XMLID_148_"><g id="XMLID_149_"><g id="XMLID_150_"><g id="XMLID_152_"><g id="XMLID_153_"><g id="XMLID_154_"><g id="XMLID_155_"><g id="XMLID_156_"><g id="XMLID_157_"><g id="XMLID_158_"><g id="XMLID_159_"><g id="XMLID_160_"><circle id="XMLID_161_" cx="256" cy="256" fill="#776d6b" r="256"/></g></g></g></g></g></g></g></g></g></g></g></g></g></g><path d="m511.995 256.365-59.762-59.762s-5.667-3.984-15.613-8.211l-61.707-61.548s-20.698-1.843-40.913-1.843c-8.638 0-21.742-14.208-29.348-11.277l-24.29-24.168-211.562 207.288 90.034 90.072c4.029 12.236 12.709 23.645 12.709 23.645l100.898 100.899c133.601-8.471 239.365-119.402 239.554-255.095z" fill="#57555c"/><g><path d="m397.596 172.276c-1.798 0-3.574.087-5.339.214 0-.072.005-.142.005-.214 0-37.669-30.537-68.205-68.205-68.205-10.532 0-20.505 2.391-29.41 6.654-13.792-29.003-43.354-49.057-77.607-49.057-47.439 0-85.896 38.457-85.896 85.896 0 .037.003.074.003.111-1.452-.073-2.914-.111-4.385-.111-47.439 0-85.896 38.457-85.896 85.896s38.457 85.896 85.896 85.896c16.562 0 32.021-4.699 45.139-12.819 13.118 8.12 28.577 12.819 45.139 12.819s32.021-4.699 45.139-12.819c13.118 8.12 28.577 12.819 45.139 12.819 17.38 0 33.543-5.178 47.062-14.052 12.133 8.83 27.061 14.052 43.216 14.052 40.615 0 73.54-32.925 73.54-73.54-.001-40.615-32.926-73.54-73.54-73.54z" fill="#fff"/><g><path d="m471.14 245.82c0 40.61-32.93 73.53-73.54 73.53-11.84 0-23.01-2.8-32.91-7.77-3.62-1.81-7.07-3.91-10.31-6.28-13.52 8.88-29.68 14.05-47.06 14.05-2.14 0-4.26-.08-6.36-.24-6.47-.47-12.73-1.66-18.73-3.48-2.42-.74-4.79-1.59-7.11-2.52-4.52-1.83-8.84-4.03-12.94-6.57-2.01 1.24-4.07 2.4-6.18 3.48v-239.02c16.86 8.59 30.5 22.6 38.65 39.72 8.9-4.26 18.87-6.65 29.41-6.65 37.66 0 68.2 30.54 68.2 68.21v.21c1.76-.13 3.54-.21 5.34-.21 40.61 0 73.54 32.92 73.54 73.54z" fill="#eae1dc"/></g><path d="m291.691 429.367h-71.383c-40.148 0-72.996-32.848-72.996-72.996v-50.566c0-40.148 32.848-72.996 72.996-72.996h71.383c40.148 0 72.996 32.848 72.996 72.996v50.566c.001 40.148-32.848 72.996-72.996 72.996z" fill="#238cf8"/><path d="m364.69 305.8v50.57c0 40.15-32.85 73-73 73h-35.69v-196.56h35.69c40.15 0 73 32.85 73 72.99z" fill="#0768dd"/><path d="m289.258 308.139-14.141 15.075v-48.479h-38.234v48.479l-14.141-15.075-21.88 20.525 55.138 58.777 55.138-58.777z" fill="#5eefee"/><path d="m311.14 328.66-55.14 58.78v-112.71h19.12v48.48l7.11-7.58 7.03-7.49 11.7 10.97z" fill="#54c9fc"/></g></g></svg>