<?xml version="1.0" encoding="iso-8859-1"?>
<!-- Generator: Adobe Illustrator 21.0.0, SVG Export Plug-In . SVG Version: 6.00 Build 0)  -->
<svg xmlns="http://www.w3.org/2000/svg" xmlns:xlink="http://www.w3.org/1999/xlink" version="1.1" id="Capa_1" x="0px" y="0px" viewBox="0 0 512 512" style="enable-background:new 0 0 512 512;" xml:space="preserve" width="512" height="512">
<g>
	<g>
		<g>
			<g>
				<g>
					<g>
						<g>
							<g>
								<g>
									<g>
										<g>
											<circle style="fill:#65B1FC;" cx="256" cy="256" r="256"/>
										</g>
									</g>
								</g>
							</g>
						</g>
					</g>
				</g>
			</g>
		</g>
	</g>
	<path style="fill:#3992EA;" d="M512,256c0-7.569-0.348-15.055-0.992-22.456L399.082,121.617l-16.059,12.974l-38.777-38.777   l-0.36,0.658L316.5,69.086l-2.546,76.768L238,69.9l-3.923,74.265L159.5,69.9L101.754,417l85.706,85.706   C209.276,508.754,232.258,512,256,512C397.385,512,512,397.385,512,256z"/>
	<g>
		<rect x="101.754" y="95" style="fill:#FFFFFF;" width="242.492" height="322"/>
	</g>
	<g>
		<rect x="222.571" y="95" style="fill:#E9EDF5;" width="121.675" height="322"/>
	</g>
	<g>
		<g>
			<rect x="129.5" y="69.086" style="fill:#555A66;" width="30" height="54.828"/>
		</g>
		<g>
			<rect x="208" y="69.086" style="fill:#555A66;" width="30" height="54.828"/>
		</g>
		<g>
			<rect x="222.571" y="69.086" style="fill:#333940;" width="15.429" height="54.828"/>
		</g>
		<g>
			<rect x="286.5" y="69.086" style="fill:#333940;" width="30" height="54.828"/>
		</g>
	</g>
	<g>
		<rect x="129.5" y="160" style="fill:#E9EDF5;" width="187" height="29"/>
	</g>
	<g>
		<rect x="222.571" y="160" style="fill:#DCE1EB;" width="93.929" height="29"/>
	</g>
	<g>
		<rect x="129.5" y="221" style="fill:#E9EDF5;" width="187" height="29"/>
	</g>
	<g>
		<rect x="222.571" y="221" style="fill:#DCE1EB;" width="93.929" height="29"/>
	</g>
	<g>
		<rect x="129.5" y="282" style="fill:#E9EDF5;" width="187" height="29"/>
	</g>
	<g>
		<rect x="222.571" y="282" style="fill:#DCE1EB;" width="93.929" height="29"/>
	</g>
	<g>
		<rect x="129.5" y="343" style="fill:#E9EDF5;" width="187" height="29"/>
	</g>
	<g>
		<rect x="222.571" y="343" style="fill:#DCE1EB;" width="93.929" height="29"/>
	</g>
	<g>
		<rect x="330.082" y="121.617" style="fill:#FFCE00;" width="69" height="236"/>
	</g>
	<g>
		<rect x="364.333" y="121.617" style="fill:#FFB000;" width="34.749" height="236"/>
	</g>
	<g>
		<rect x="350.831" y="121.617" style="fill:#FFA300;" width="27.503" height="236"/>
	</g>
	<g>
		<rect x="364.333" y="121.617" style="fill:#FF9500;" width="14" height="236"/>
	</g>
	<g>
		<polygon style="fill:#555A66;" points="399.082,357.617 364.582,408.076 330.082,357.617   "/>
	</g>
	<g>
		<polygon style="fill:#333940;" points="399.082,357.617 364.333,357.617 364.582,408.076 364.582,408.076   "/>
	</g>
	<g>
		<polygon style="fill:#FFFFFF;" points="399.082,357.617 330.082,357.617 348.348,384.333 380.816,384.333   "/>
	</g>
	<g>
		<polygon style="fill:#E9EDF5;" points="399.082,357.617 364.333,357.617 364.469,384.333 380.816,384.333   "/>
	</g>
</g>















</svg>
