<?xml version="1.0" standalone="no"?>
<!DOCTYPE svg PUBLIC "-//W3C//DTD SVG 20010904//EN"
 "http://www.w3.org/TR/2001/REC-SVG-20010904/DTD/svg10.dtd">
<svg version="1.0" xmlns="http://www.w3.org/2000/svg"
 width="512.000000pt" height="512.000000pt" viewBox="0 0 512.000000 512.000000"
 preserveAspectRatio="xMidYMid meet">
<metadata>
Created by potrace 1.14, written by Peter Selinger 2001-2017
</metadata>
<g transform="translate(0.000000,512.000000) scale(0.100000,-0.100000)"
fill="#000000" stroke="none">
<path d="M2815 4590 c-3 -5 -19 -10 -35 -10 -16 0 -32 -4 -35 -10 -3 -5 -19
-10 -36 -10 -16 0 -29 -4 -29 -10 0 -5 -7 -10 -15 -10 -8 0 -23 -4 -33 -9 -9
-5 -37 -14 -62 -21 -25 -7 -53 -16 -62 -21 -10 -5 -31 -9 -47 -9 -17 0 -33 -4
-36 -10 -3 -5 -19 -10 -35 -10 -16 0 -31 -4 -34 -9 -6 -10 -72 -22 -126 -23
-19 0 -105 5 -190 13 -173 15 -600 18 -727 5 -53 -6 -92 -16 -110 -28 l-28
-19 40 5 c219 32 552 35 845 6 417 -41 563 -60 602 -81 17 -9 17 -12 -3 -67
-31 -84 -153 -334 -190 -389 -64 -94 -234 -319 -292 -388 -33 -38 -143 -157
-246 -264 -154 -162 -212 -214 -340 -309 -84 -63 -188 -147 -230 -186 -42 -39
-100 -93 -130 -121 -97 -90 -291 -337 -291 -371 0 -8 -7 -31 -16 -52 -9 -20
-18 -46 -19 -57 -2 -11 -8 -38 -14 -60 -42 -169 -50 -180 -160 -226 -89 -37
-227 -110 -256 -136 -58 -51 -57 -52 -50 3 14 101 179 387 313 540 83 96 222
238 227 233 2 -3 -9 -43 -26 -89 -39 -112 -10 -74 37 49 109 286 282 640 398
814 47 70 84 127 82 127 -7 0 -103 -128 -164 -219 -65 -97 -190 -345 -262
-517 -38 -92 -41 -95 -197 -251 -105 -104 -182 -191 -227 -255 -37 -54 -71
-98 -75 -98 -3 0 -11 10 -17 23 -6 12 -45 90 -87 172 -42 83 -99 203 -125 268
-39 95 -50 114 -55 96 -4 -13 -2 -28 3 -33 6 -6 10 -18 10 -28 0 -10 5 -18 10
-18 6 0 10 -6 10 -14 0 -8 18 -53 40 -100 22 -47 40 -88 40 -90 0 -11 119
-245 130 -256 25 -25 38 -80 20 -80 -5 0 -10 -9 -10 -20 0 -11 -3 -20 -8 -20
-4 0 -13 -15 -20 -32 -8 -18 -22 -51 -32 -73 -10 -22 -24 -61 -30 -87 -12 -44
-11 -50 20 -112 17 -36 35 -66 39 -66 4 0 21 -11 37 -25 16 -14 67 -45 113
-68 l85 -42 -87 -3 c-108 -3 -108 -22 -1 -22 78 0 114 11 114 34 0 8 -19 50
-42 95 -34 68 -42 95 -46 155 l-4 73 88 37 c49 21 94 40 101 43 7 3 14 -10 18
-34 4 -21 14 -64 23 -97 12 -45 13 -63 4 -77 -7 -10 -12 -30 -12 -44 0 -34 35
-102 60 -115 11 -6 20 -21 20 -34 0 -22 -4 -24 -52 -22 -46 0 -63 -5 -125 -44
-78 -47 -151 -114 -135 -124 5 -3 22 6 38 20 16 13 60 46 97 72 62 42 74 47
125 47 l57 0 9 -48 c5 -32 5 -56 -2 -70 -6 -12 -15 -35 -20 -52 -8 -27 -17
-33 -105 -60 -108 -34 -127 -45 -74 -45 20 0 38 4 41 9 3 5 20 11 38 14 18 3
43 8 55 12 21 7 23 4 23 -29 0 -41 27 -108 59 -146 82 -98 141 -160 171 -181
19 -13 44 -32 54 -41 11 -10 58 -33 105 -51 l85 -33 23 -74 c20 -66 49 -110
73 -110 4 0 -3 27 -16 59 -28 69 -42 131 -26 116 5 -5 24 -46 42 -90 17 -44
40 -90 51 -101 26 -28 136 -77 154 -70 16 6 41 83 55 172 20 122 8 332 -26
453 -8 29 -13 56 -10 59 3 2 22 -2 43 -9 34 -13 39 -20 51 -69 7 -30 13 -85
14 -122 1 -37 6 -64 10 -62 12 8 10 71 -7 157 -8 43 -15 81 -15 83 0 2 11 4
25 4 31 0 39 -36 40 -182 0 -83 3 -104 12 -96 7 6 10 14 7 19 -3 5 14 30 38
55 l44 46 77 -96 c43 -53 74 -96 69 -96 -5 0 -13 -37 -17 -82 -3 -44 -10 -91
-15 -103 -6 -15 -40 -35 -117 -68 -59 -25 -109 -42 -111 -37 -2 6 -10 3 -18
-5 -11 -11 -20 -12 -34 -5 -24 13 -40 13 -40 0 0 -5 8 -7 18 -3 14 5 13 3 -3
-10 -11 -9 -28 -17 -38 -17 -30 0 -9 -19 29 -26 22 -4 40 -2 47 5 6 6 24 11
39 11 15 0 28 4 28 8 0 4 21 14 48 21 26 8 66 23 90 34 23 11 44 18 47 16 2
-2 -1 -24 -7 -49 -5 -25 -12 -64 -15 -87 -5 -41 -5 -42 32 -49 20 -3 39 -4 42
0 4 3 -4 6 -16 6 -32 0 -36 22 -17 108 9 42 19 104 22 137 9 91 5 89 86 46 40
-22 92 -45 116 -51 l44 -11 -78 -82 c-43 -45 -94 -90 -113 -99 -20 -10 -28
-18 -18 -18 21 0 22 -14 2 -33 -12 -13 -5 -16 63 -26 126 -18 279 -31 366 -30
76 0 79 1 47 13 l-33 12 71 66 c39 36 80 68 91 71 11 3 18 1 15 -3 -9 -14 80
-23 149 -15 l64 6 32 -46 c29 -42 34 -46 63 -40 126 25 137 28 137 46 0 15 4
17 24 9 37 -14 126 19 359 129 l129 60 -7 31 c-8 34 -8 34 33 19 34 -12 62 3
205 108 71 53 71 54 15 82 -15 8 -25 17 -23 21 2 4 52 22 111 41 99 32 110 38
165 93 32 32 87 94 121 138 50 63 62 85 60 109 -3 21 1 29 12 29 9 0 16 -5 16
-11 0 -11 40 34 57 64 17 32 -47 197 -118 306 l-23 33 25 -7 c13 -4 40 -15 59
-25 66 -33 210 -55 217 -34 2 7 -2 18 -10 25 -45 46 -177 273 -165 285 2 1 36
6 76 9 63 7 72 6 72 -9 0 -9 8 -16 20 -16 13 0 20 7 20 20 0 20 6 23 83 35 47
8 50 15 88 198 71 347 62 696 -26 1041 -58 232 -58 231 -188 323 -61 44 -147
101 -189 128 -69 43 -98 75 -68 75 6 0 65 -35 130 -77 129 -83 189 -117 197
-109 15 14 -67 106 -94 106 -7 0 -13 4 -13 8 0 5 -12 15 -27 23 -16 8 -30 17
-33 20 -11 15 -172 109 -186 109 -8 0 -14 3 -14 8 0 4 -10 12 -23 18 -60 30
-112 60 -115 67 -2 4 -12 7 -23 7 -10 0 -19 5 -19 10 0 6 -9 10 -20 10 -11 0
-20 5 -20 10 0 6 -9 10 -20 10 -11 0 -20 5 -20 10 0 6 -9 10 -20 10 -11 0 -20
5 -20 10 0 6 -9 10 -20 10 -11 0 -20 5 -20 10 0 6 -7 10 -15 10 -8 0 -25 6
-37 13 -28 16 -235 222 -270 269 -33 43 -177 188 -187 188 -4 0 -21 11 -37 25
-16 14 -34 25 -41 25 -6 0 -13 3 -15 8 -3 7 -159 86 -203 102 -11 4 -40 13
-65 20 -25 6 -59 16 -76 21 -41 12 -211 12 -219 -1z m250 -45 c65 -17 98 -28
160 -54 22 -10 66 -28 98 -42 63 -26 216 -160 251 -219 l18 -32 -23 13 c-13 7
-28 12 -32 11 -4 -1 -18 4 -30 13 -12 8 -28 15 -37 14 -10 0 -11 -2 -2 -6 6
-2 12 -9 12 -15 0 -6 -6 -8 -13 -5 -21 8 -16 -26 6 -45 11 -10 32 -18 46 -18
16 0 41 -14 64 -35 20 -18 37 -30 37 -24 0 5 5 9 12 9 6 0 9 -3 5 -6 -3 -4 1
-13 9 -21 8 -9 13 -17 11 -19 -2 -2 -55 17 -117 42 -322 127 -837 266 -1105
299 -33 4 -53 10 -45 13 8 3 17 8 20 12 3 3 34 14 70 24 36 9 128 39 205 66
134 46 144 48 230 45 50 -2 117 -11 150 -20z m-228 -256 c127 -33 462 -142
588 -190 145 -56 144 -56 138 -79 -8 -28 -11 -28 -268 59 -230 78 -492 157
-556 167 -35 6 -40 10 -35 28 3 12 6 27 6 34 0 16 -6 17 127 -19z m880 -311
c54 -24 90 -45 86 -51 -4 -6 0 -8 10 -4 9 3 18 0 21 -8 3 -9 12 -12 22 -8 11
4 15 2 11 -4 -8 -12 14 -24 57 -29 37 -5 404 -194 411 -212 12 -33 -38 -15
-256 91 -129 63 -295 141 -369 172 -74 32 -136 58 -137 59 -1 1 0 12 4 24 7
27 14 26 140 -30z m-1117 -143 c72 -48 180 -148 248 -230 23 -27 41 -45 42
-40 0 12 -96 133 -153 194 -23 24 -33 39 -22 33 11 -5 43 -13 70 -17 55 -7
211 -63 289 -102 27 -14 57 -22 68 -20 31 9 223 -59 364 -127 110 -54 143 -76
211 -140 44 -41 100 -101 124 -133 24 -32 57 -74 74 -94 46 -55 82 -103 83
-112 0 -4 13 -22 27 -39 57 -68 7 -41 -125 67 -131 107 -423 315 -442 315 -8
0 60 -53 381 -296 85 -65 193 -154 240 -198 211 -199 381 -329 503 -389 48
-23 88 -45 88 -48 0 -22 -209 -42 -355 -36 -250 12 -469 82 -697 223 -134 82
-147 94 -270 232 -163 185 -268 332 -363 509 -21 40 -41 71 -43 69 -14 -14
161 -307 250 -417 39 -49 190 -220 224 -254 29 -29 30 -42 3 -50 -36 -12 -292
154 -407 264 -27 26 -59 74 -87 133 -25 50 -45 87 -45 82 -1 -5 -9 7 -20 26
-29 53 -24 33 19 -72 90 -222 244 -468 409 -657 30 -34 50 -61 45 -61 -41 0
-246 142 -372 258 -122 112 -193 202 -285 359 -83 143 -110 199 -192 397 -29
70 -56 131 -59 135 -9 9 -31 -23 -74 -109 -52 -103 -79 -189 -94 -300 l-13
-94 -18 49 c-24 63 -52 110 -94 157 -19 21 -32 42 -30 46 1 5 30 38 62 73 33
35 57 56 53 46 -4 -10 -7 -31 -7 -45 0 -22 -2 -24 -11 -12 -9 12 -10 11 -4 -5
4 -11 10 -50 12 -87 6 -75 23 -93 23 -25 0 23 7 86 14 140 15 105 21 118 111
227 24 30 69 92 99 138 31 45 61 82 67 82 6 0 42 -20 79 -45z m-183 -468 c-23
-29 -57 -77 -76 -107 -43 -68 -40 -64 -47 -58 -7 8 31 156 55 210 10 24 29 65
41 91 l23 48 23 -66 23 -66 -42 -52z m1468 -20 c44 -19 150 -67 235 -107 244
-113 422 -170 570 -182 32 -3 29 -5 -50 -37 -182 -72 -330 -79 -547 -24 -22 5
-68 60 -173 209 -30 43 -79 104 -109 136 -59 64 -61 64 74 5z m-1375 -47 c19
-41 37 -79 42 -84 8 -10 -71 -50 -80 -41 -3 3 2 19 12 35 17 30 17 30 -6 30
-25 0 -72 -26 -130 -72 -21 -16 -38 -28 -38 -25 0 47 142 261 160 240 4 -4 22
-42 40 -83z m-388 -37 c82 -110 89 -141 17 -79 -24 20 -60 44 -80 54 l-37 17
26 28 c14 15 28 27 32 27 3 0 22 -21 42 -47z m-57 -49 c22 -15 54 -39 70 -54
17 -15 39 -32 50 -38 15 -8 -3 -10 -75 -9 -52 1 -107 -1 -121 -5 l-27 -8 10
48 c11 56 27 92 42 92 6 0 29 -12 51 -26z m354 -58 c-12 -20 -18 -40 -15 -44
4 -3 41 11 82 32 44 23 79 35 84 30 5 -5 37 -56 72 -114 35 -58 71 -117 81
-131 18 -27 18 -27 -17 -48 -37 -23 -136 -126 -136 -142 0 -18 24 -8 109 46
48 30 92 55 98 55 8 0 153 -145 153 -154 0 -1 -22 -17 -49 -34 -61 -40 -113
-97 -145 -160 -35 -70 -21 -86 36 -40 44 36 152 108 163 108 3 0 2 -24 -1 -52
-13 -115 40 -262 121 -337 50 -46 53 -47 160 -26 93 17 133 45 175 118 41 72
66 189 52 242 -12 47 -8 55 16 31 25 -24 21 -161 -6 -238 -11 -32 -17 -58 -13
-58 16 0 61 57 81 102 11 25 23 67 26 92 4 25 10 43 15 41 15 -10 51 -138 51
-185 0 -30 -9 -69 -25 -102 -54 -119 -207 -292 -331 -374 -68 -45 -63 -49 54
-42 63 4 91 13 174 52 55 25 101 45 102 43 7 -7 -48 -78 -93 -122 -27 -25 -91
-71 -143 -102 -69 -41 -120 -81 -188 -150 -101 -102 -145 -164 -206 -290 -35
-71 -46 -84 -93 -112 -29 -18 -81 -55 -116 -82 -60 -49 -62 -50 -68 -27 -14
47 -10 75 11 81 27 7 43 52 29 79 -13 24 -14 23 35 34 90 21 42 29 -176 29
-123 0 -240 4 -260 8 l-37 8 41 77 c55 102 91 155 155 224 29 32 53 60 53 63
0 11 -107 -49 -191 -106 -47 -33 -124 -95 -170 -139 l-84 -80 -75 25 c-148 49
-278 147 -327 246 -13 27 -32 105 -47 201 -14 86 -29 163 -32 172 -10 26 3 18
45 -27 36 -39 121 -97 121 -82 0 3 -18 30 -40 59 -39 52 -100 173 -100 199 0
17 71 99 110 127 l28 20 -5 -39 c-11 -81 58 -236 127 -288 14 -11 43 -27 66
-37 40 -17 41 -17 95 8 91 42 123 82 135 169 7 49 -12 184 -28 193 -5 3 -2 14
8 25 25 27 6 44 -102 96 -84 40 -98 43 -172 43 l-80 0 -16 35 c-18 37 -46 123
-46 140 0 12 138 2 220 -14 25 -5 47 -7 50 -4 18 17 -108 76 -192 88 l-46 7
44 87 c24 47 61 133 82 191 l37 105 45 8 c25 4 62 5 83 2 49 -7 47 8 -5 40
l-43 27 90 -7 c50 -3 105 -11 124 -17 33 -10 35 -9 75 36 43 47 116 109 123
102 2 -2 -6 -20 -18 -40z m-510 -113 c-16 -71 -43 -164 -60 -208 -38 -97 -95
-211 -109 -220 -14 -9 -12 169 4 280 7 50 12 93 9 97 -5 9 159 178 173 178 7
0 1 -45 -17 -127z m86 7 c-3 -5 -15 -10 -26 -10 -10 0 -19 5 -19 10 0 6 12 10
26 10 14 0 23 -4 19 -10z m-263 -112 c-8 -31 -16 -118 -19 -206 -5 -125 -2
-164 12 -215 22 -80 62 -175 86 -206 30 -38 14 -37 -40 3 -118 87 -212 239
-240 391 -7 33 -14 70 -16 82 -4 18 14 38 107 112 62 50 116 90 119 91 3 0 -1
-24 -9 -52z m2509 -7 c38 -5 76 -15 84 -21 37 -30 180 -280 173 -300 -5 -16
-113 62 -186 133 -35 34 -100 102 -145 151 -80 87 -81 88 -39 67 23 -12 74
-26 113 -30z m-1152 -39 c65 -56 157 -120 219 -151 24 -12 42 -24 39 -27 -2
-3 -47 -2 -100 2 l-95 7 -50 77 c-58 90 -85 140 -76 140 3 0 32 -22 63 -48z
m1430 -111 c100 -102 153 -148 198 -172 35 -19 63 -37 63 -40 0 -18 -141 -26
-183 -10 -16 6 -32 28 -47 63 -23 54 -130 224 -169 267 -24 28 -25 31 -9 31 7
0 73 -63 147 -139z m-1756 95 c4 -10 -15 -28 -58 -55 -69 -44 -75 -46 -75 -32
0 10 109 100 121 101 4 0 9 -6 12 -14z m-1263 -140 c0 -53 39 -169 84 -250
l33 -62 -21 -30 c-49 -72 -215 -247 -273 -289 -35 -25 -65 -45 -68 -45 -3 0
-5 8 -5 18 0 36 -30 51 -85 42 -131 -22 -125 -22 -125 13 0 18 -4 38 -9 46 -6
10 -1 26 15 50 13 20 42 78 64 130 23 52 51 106 63 120 64 75 309 311 317 306
6 -3 10 -25 10 -49z m1994 -31 c35 -31 37 -35 17 -35 -21 0 -71 43 -71 61 0
16 14 9 54 -26z m-1639 -111 c36 -9 65 -21 65 -26 0 -5 5 -6 10 -3 6 3 10 1
10 -6 0 -7 -10 -9 -27 -6 -155 29 -165 32 -146 50 9 10 16 9 88 -9z m2001
-108 c50 -19 102 -38 117 -41 25 -7 27 -11 27 -65 0 -198 -92 -456 -243 -679
-65 -96 -208 -245 -312 -325 -255 -194 -384 -310 -482 -434 -41 -51 -76 -92
-78 -90 -7 7 17 123 37 181 37 108 96 227 147 296 68 92 201 217 296 281 149
99 192 138 232 209 21 38 79 111 136 171 89 95 146 174 134 187 -3 2 -18 -15
-35 -39 -44 -64 -180 -190 -248 -230 -94 -55 -275 -121 -290 -105 -3 2 17 21
43 40 203 150 373 437 373 629 0 78 -14 91 -23 21 -8 -69 -28 -155 -34 -149
-3 3 -16 35 -28 71 -13 36 -31 77 -39 90 -22 34 -20 43 16 64 l31 20 67 -34
c36 -18 107 -49 156 -69z m-745 59 c25 -16 37 -30 33 -38 -17 -29 -39 -47 -57
-47 -22 0 -67 36 -67 54 0 9 39 56 47 56 2 0 21 -11 44 -25z m-29 -108 c21 -6
29 -15 34 -43 9 -50 94 -135 94 -94 0 6 -4 10 -10 10 -24 0 -50 45 -50 87 l0
43 39 0 c22 0 46 3 54 6 25 9 47 -24 47 -70 0 -23 -4 -47 -10 -54 -5 -7 -1 -4
11 6 12 12 21 33 22 55 1 20 7 37 13 37 25 0 73 -23 78 -37 12 -31 -24 -123
-65 -167 -33 -36 -49 -45 -97 -55 -105 -20 -139 -18 -173 15 -17 16 -42 48
-55 71 -27 46 -48 151 -39 194 8 33 43 43 65 19 9 -9 28 -20 42 -23z m318 2
c0 -6 -4 -7 -10 -4 -5 3 -10 11 -10 16 0 6 5 7 10 4 6 -3 10 -11 10 -16z m790
-45 c80 -13 138 -16 252 -11 l148 5 6 -26 c3 -15 7 -33 10 -40 23 -74 52 -386
37 -395 -5 -3 -22 21 -37 54 -63 132 -299 335 -451 388 l-30 11 25 -20 c14
-10 65 -48 115 -83 l89 -64 21 -129 c43 -256 69 -336 149 -456 20 -29 36 -56
36 -61 0 -12 -50 3 -110 33 -30 16 -70 33 -89 39 -59 19 -201 140 -201 171 0
9 14 42 30 73 74 136 69 309 -12 384 -27 26 -88 53 -119 53 -15 0 -19 4 -15
16 3 9 6 31 6 50 0 29 3 34 18 30 9 -3 64 -12 122 -22z m-2512 -33 l32 -40
-57 -35 c-40 -25 -69 -36 -95 -36 l-38 0 44 55 c25 30 50 64 56 75 15 28 22
26 58 -19z m2439 -90 c126 -58 114 -300 -23 -459 -55 -64 -204 -132 -260 -118
l-24 6 26 51 c21 42 27 49 37 36 32 -39 81 -21 75 28 -2 24 -8 31 -30 33 -16
2 -28 5 -28 6 0 2 12 25 26 51 15 26 44 95 65 154 37 105 38 106 68 104 18 0
38 -7 46 -13 21 -18 19 -96 -5 -147 -22 -50 -9 -58 20 -11 40 66 35 164 -11
188 -10 6 -32 10 -49 10 -25 0 -30 4 -26 18 2 9 7 32 11 50 8 38 22 40 82 13z
m-2176 -50 c23 -18 23 -20 7 -54 -20 -43 -61 -54 -90 -25 -22 22 -17 54 14 81
26 22 40 22 69 -2z m-391 -53 c0 -19 -27 -6 -43 21 -25 43 -21 48 13 16 17
-16 30 -32 30 -37z m-40 -41 c0 -4 -18 -27 -40 -51 -32 -34 -43 -56 -51 -102
-21 -113 5 -317 62 -469 49 -134 168 -294 269 -362 30 -20 49 -38 43 -40 -15
-5 -169 57 -229 92 -68 40 -183 153 -210 207 -38 75 -50 177 -34 300 14 117
17 131 59 287 19 70 43 134 63 164 l31 49 18 -33 c10 -19 18 -37 19 -42z
m-502 16 c2 -23 -5 -40 -28 -67 -52 -59 -75 -42 -49 35 25 72 71 92 77 32z
m1141 -29 c8 -16 17 -56 19 -89 5 -81 -20 -119 -108 -161 -62 -30 -67 -31
-100 -17 -74 30 -124 107 -136 209 -5 43 -4 58 7 65 23 14 32 10 26 -12 -4
-15 -2 -19 9 -15 9 3 14 -1 15 -12 0 -13 3 -11 9 6 13 32 36 27 44 -9 9 -47
66 -99 108 -98 l33 2 -35 6 c-24 4 -41 16 -57 39 -21 32 -21 35 -6 58 8 13 24
24 34 24 11 0 19 5 19 10 0 15 27 12 44 -6 10 -9 16 -34 17 -62 0 -36 3 -42 9
-27 14 32 11 89 -5 111 -8 12 -11 24 -8 28 11 10 47 -19 62 -50z m-774 -62
c-27 -66 -58 -185 -76 -285 -12 -72 -27 -83 -43 -31 -5 16 -15 41 -22 55 -12
24 -11 28 7 45 52 47 48 82 -11 109 -22 10 -40 21 -40 24 0 3 22 19 49 35 27
16 70 46 97 67 27 21 52 38 56 38 4 1 -4 -25 -17 -57z m-151 23 c9 -24 -1 -38
-48 -68 -29 -18 -57 -27 -85 -27 -23 0 -65 -8 -94 -18 -60 -22 -77 -19 -77 12
0 45 61 83 164 101 98 18 133 18 140 0z m322 -91 c6 -1 14 -22 18 -47 6 -40 3
-50 -39 -117 -25 -41 -45 -80 -45 -88 0 -7 -6 -12 -12 -10 -17 6 -28 92 -26
204 l1 92 46 -16 c25 -8 51 -16 57 -18z m-342 -52 c27 -15 51 -32 52 -37 2 -6
-8 -18 -22 -29 -22 -15 -31 -17 -69 -7 -57 14 -98 14 -131 -1 -24 -11 -29 -10
-50 15 -31 37 -30 43 9 67 50 31 148 27 211 -8z m-29 -128 c48 -42 49 -45 31
-59 -21 -16 -57 -12 -94 12 -12 7 -27 11 -32 8 -10 -6 -60 44 -60 62 0 15 17
21 65 22 34 0 48 -7 90 -45z m425 -74 c26 -152 44 -202 96 -266 24 -30 42 -54
39 -54 -38 0 -149 112 -185 184 -12 25 -24 69 -27 99 -5 44 -1 61 21 106 15
29 29 51 32 48 3 -2 13 -55 24 -117z m2625 -65 c54 -45 99 -107 108 -150 6
-28 5 -27 -14 8 -25 47 -34 43 -21 -9 16 -64 22 -133 12 -139 -5 -3 -7 -12 -3
-20 3 -8 0 -15 -6 -15 -11 0 -14 11 -15 65 -1 23 -5 30 -20 28 -11 -1 -26 6
-33 15 -11 15 -12 15 -13 -6 0 -15 -5 -22 -12 -19 -7 2 -12 11 -10 21 3 18
-13 22 -24 5 -4 -7 -9 -8 -17 0 -7 7 -6 15 3 26 11 13 10 15 -2 10 -9 -3 -20
-17 -27 -31 -9 -20 -9 -24 1 -18 7 4 4 -2 -6 -14 -11 -12 -24 -22 -29 -22 -14
0 0 350 15 367 8 10 16 5 38 -26 15 -21 49 -55 75 -76z m-3605 23 c0 -76 19
-133 60 -185 11 -14 18 -28 16 -31 -14 -13 -229 134 -240 165 -4 9 -1 23 7 30
17 17 139 93 150 93 4 0 7 -33 7 -72z m3446 10 c-3 -18 -8 -91 -11 -162 -7
-128 -18 -188 -34 -170 -4 5 -18 43 -31 84 -22 73 -22 75 -5 120 10 25 25 65
34 90 9 25 20 51 24 58 15 23 28 12 23 -20z m-2807 -17 c27 -34 31 -47 31
-100 0 -58 -10 -76 -27 -48 -4 6 -10 41 -14 77 -5 50 -12 68 -28 78 -24 17
-28 32 -7 32 8 0 28 -18 45 -39z m2721 -12 c0 -25 -80 -178 -123 -235 -84
-111 -263 -264 -289 -248 -11 7 -10 12 21 129 11 44 21 90 21 103 0 13 23 50
53 85 29 34 68 84 86 111 33 47 34 48 75 42 25 -4 59 -1 86 8 57 18 70 19 70
5z m-2760 -63 c0 -37 -5 -48 -34 -74 -50 -44 -115 -66 -178 -60 -44 5 -57 11
-85 42 -24 26 -33 45 -33 71 0 38 15 47 25 15 4 -11 18 -26 33 -34 78 -39 154
-25 217 40 22 23 43 43 48 43 4 1 7 -19 7 -43z m295 -39 c27 -48 32 -77 12
-77 -7 0 -19 21 -26 48 -8 26 -16 53 -19 60 -10 27 9 10 33 -31z m887 -104
c-22 -26 -61 -82 -88 -123 -80 -126 -169 -231 -269 -319 -53 -46 -99 -81 -102
-78 -6 7 75 160 120 227 54 80 110 142 197 218 85 75 170 136 178 127 2 -2
-14 -25 -36 -52z m1578 -78 c32 -115 29 -143 -21 -217 -46 -68 -90 -115 -132
-143 -32 -21 -36 -6 -8 33 10 15 37 64 60 109 41 80 42 83 26 113 -9 17 -27
36 -40 42 -32 14 -31 21 8 73 17 24 40 58 51 77 22 39 21 40 56 -87z m-2392
83 c16 -16 15 -63 -2 -77 -10 -9 -17 -6 -30 13 -9 14 -16 31 -16 39 0 13 19
37 30 37 3 0 11 -5 18 -12z m123 -94 c8 -8 21 -14 27 -14 6 0 13 -3 15 -7 3
-5 -14 -6 -38 -5 -39 4 -44 1 -61 -27 -13 -21 -20 -27 -26 -18 -12 18 -10 55
5 78 13 22 49 19 78 -7z m1849 -6 c0 -38 -21 -112 -44 -157 -15 -28 -21 -31
-61 -31 -24 0 -46 3 -48 8 -11 17 55 136 95 173 24 21 46 39 50 39 5 0 8 -15
8 -32z m843 -29 c5 -3 2 -9 -7 -12 -12 -5 -16 0 -16 15 0 12 3 17 8 12 4 -5
11 -12 15 -15z m-243 -19 c0 -4 8 -10 18 -12 9 -3 28 -27 41 -54 14 -27 33
-58 43 -69 10 -10 24 -37 30 -58 10 -33 9 -44 -7 -74 -31 -56 -121 -129 -219
-177 -158 -76 -149 -75 -244 -27 -45 23 -82 46 -82 51 0 11 37 45 120 112 30
24 76 71 101 104 46 58 58 71 137 144 31 28 40 42 35 58 -4 18 -2 21 11 16 9
-3 16 -10 16 -14z m260 -20 c0 -11 -4 -20 -10 -20 -5 0 -10 9 -10 20 0 11 5
20 10 20 6 0 10 -9 10 -20z m-3009 -26 c18 -20 62 -56 97 -81 34 -25 62 -47
62 -49 0 -11 21 -152 32 -212 13 -79 29 -68 18 13 -4 33 -10 88 -13 122 l-5
63 28 -15 c24 -13 31 -25 44 -87 23 -105 35 -193 37 -273 l2 -70 -99 2 c-128
2 -268 33 -364 80 -79 39 -168 120 -256 235 -49 63 -56 103 -31 187 13 42 14
43 32 25 15 -16 34 -19 109 -19 79 0 99 4 154 29 35 16 72 42 83 58 11 15 24
28 28 28 4 0 23 -16 42 -36z m2440 15 c33 -23 36 -46 14 -90 l-16 -29 -33 25
c-22 17 -32 32 -31 48 1 12 0 14 -2 5 -5 -20 -23 -25 -23 -6 0 11 48 68 58 68
2 0 17 -9 33 -21z m249 6 c0 -8 -7 -15 -16 -15 -14 0 -14 3 -4 15 7 8 14 15
16 15 2 0 4 -7 4 -15z m-713 -59 c-18 -45 -26 -55 -49 -58 -15 -3 -37 1 -49 7
-21 12 -19 14 41 63 35 28 67 49 71 46 4 -2 -2 -28 -14 -58z m401 -62 c13 -8
26 -22 29 -29 5 -15 -65 -154 -95 -188 -15 -17 -17 -16 -34 15 -20 38 -22 48
-8 48 5 0 16 -12 24 -27 8 -16 15 -21 15 -13 1 29 -44 95 -67 98 l-22 3 20 29
c11 15 20 32 20 36 0 4 10 18 22 31 24 26 52 25 96 -3z m-518 -9 c0 -14 -48
-41 -56 -32 -2 2 3 13 12 25 17 25 44 29 44 7z m380 -1 c0 -16 -23 -44 -35
-44 -21 0 -19 27 3 39 19 12 32 14 32 5z m-1018 -66 c-2 -18 4 -64 12 -101
l16 -68 -47 -54 c-44 -50 -48 -53 -55 -32 -3 12 -6 70 -7 128 l-1 106 37 26
c21 15 40 27 43 27 3 0 4 -15 2 -32z m-110 -95 c-3 -95 10 -251 24 -287 3 -7
-6 -20 -19 -29 l-24 -16 -18 82 c-9 45 -19 139 -22 208 l-6 126 29 11 c16 6
31 11 34 11 3 1 4 -47 2 -106z m-110 -22 c2 -60 2 -108 0 -106 -5 5 -122 197
-122 201 0 3 44 8 97 12 21 2 22 -2 25 -107z m446 31 c-19 -21 -47 -56 -62
-79 -16 -24 -33 -43 -38 -43 -4 0 -46 -36 -92 -80 -46 -44 -86 -80 -90 -80 -3
0 -6 13 -6 29 0 52 63 119 240 255 79 62 107 60 48 -2z m-964 21 c4 -9 4 -18
2 -20 -8 -8 -23 6 -29 26 -6 24 18 18 27 -6z m1582 -54 c-15 -22 -45 -58 -67
-80 -55 -55 -42 -61 19 -10 26 23 51 41 55 41 12 0 8 -30 -8 -60 -18 -34 -46
-41 -38 -10 3 11 0 20 -6 20 -6 0 -11 -15 -11 -34 0 -28 -6 -38 -29 -52 -30
-18 -34 -38 -6 -27 20 7 19 -11 -1 -28 -9 -7 -20 -23 -25 -36 -5 -15 -17 -23
-32 -23 -32 0 -38 -8 -24 -31 16 -27 -4 -39 -65 -39 -39 0 -54 6 -83 31 -22
20 -35 26 -36 18 -2 -22 -27 63 -28 93 -1 14 -6 28 -13 30 -24 8 5 28 41 28
29 0 44 -7 70 -34 l33 -34 -23 -16 c-21 -14 -25 -14 -46 -1 -27 18 -30 13 -7
-9 23 -24 39 -20 85 23 l42 38 -18 30 c-10 17 -15 38 -12 47 4 9 44 40 89 70
46 30 101 68 123 84 48 37 56 25 21 -29z m-1383 -25 c29 -15 93 -51 144 -80
50 -30 115 -65 143 -78 47 -22 55 -30 75 -80 13 -31 20 -58 15 -61 -4 -2 -25
-7 -47 -11 -32 -5 -51 0 -101 25 -69 35 -82 27 -24 -16 20 -15 51 -41 68 -58
28 -27 104 -69 189 -106 24 -10 27 -13 11 -17 -10 -2 -51 8 -92 23 -60 22 -93
44 -183 120 -99 85 -244 240 -281 300 -13 22 -12 26 5 44 10 12 20 21 22 21 2
0 27 -12 56 -26z m771 -27 c-7 -51 -11 -54 -39 -33 -18 13 -18 15 9 51 15 20
30 35 32 32 2 -2 1 -25 -2 -50z m257 7 c7 -9 32 -29 55 -45 32 -22 41 -34 37
-49 -6 -23 -7 -24 -49 -8 -25 9 -42 8 -78 -2 -49 -14 -57 -30 -31 -64 8 -11
15 -27 15 -37 0 -16 -63 -79 -78 -79 -19 1 -45 58 -53 118 -9 76 -11 72 81
141 60 44 80 50 101 25z m359 -138 c0 -19 -58 -42 -71 -29 -7 7 -3 16 12 27
29 20 59 21 59 2z m-1187 -254 c10 -15 -56 10 -83 31 -8 7 -32 21 -53 31 -24
13 -36 25 -32 34 3 7 5 25 5 40 0 23 7 19 78 -49 42 -41 81 -80 85 -87z m727
8 c0 -5 -8 -10 -17 -10 -15 0 -16 2 -3 10 19 12 20 12 20 0z m-9 -61 c-16 -6
-28 -6 -35 1 -7 7 1 10 25 9 32 0 33 -1 10 -10z m-598 -22 l28 -12 -96 -85
c-52 -46 -95 -88 -95 -92 0 -5 -16 -8 -35 -8 -19 0 -35 4 -35 10 0 14 180 200
194 200 6 -1 24 -6 39 -13z m197 -42 c131 -11 129 -8 57 -69 -35 -30 -72 -67
-81 -81 -20 -30 1 -30 -215 -9 l-75 7 90 84 c78 73 93 83 119 79 17 -3 64 -8
105 -11z"/>
<path d="M3007 4428 c9 -10 11 -18 5 -18 -6 0 -9 -7 -5 -17 5 -14 8 -13 15 7
8 22 9 22 30 4 12 -11 18 -13 13 -5 -6 10 -4 12 4 7 9 -6 9 -11 1 -21 -7 -9
-8 -15 -1 -19 6 -4 8 -14 5 -24 -5 -13 -4 -14 4 -3 8 11 13 10 31 -8 24 -24
51 -18 46 9 -3 17 -1 18 15 8 10 -7 16 -16 14 -20 -3 -4 2 -8 11 -8 12 0 14 4
5 19 -7 13 -7 22 0 26 6 3 13 -1 16 -9 3 -9 12 -16 20 -16 26 0 14 16 -22 30
-26 11 -34 19 -31 32 3 10 1 16 -4 12 -5 -3 -9 1 -9 8 -1 7 -7 2 -14 -11 -9
-17 -15 -20 -18 -10 -3 9 -20 14 -48 15 -26 0 -47 6 -54 16 -6 8 -19 15 -29
15 -16 0 -16 -2 0 -19z m125 -37 c14 -16 14 -20 2 -25 -7 -3 -13 -2 -13 2 4
22 -3 31 -18 25 -11 -4 -14 -3 -9 5 10 17 19 15 38 -7z m35 -13 c-3 -8 -6 -5
-6 6 -1 11 2 17 5 13 3 -3 4 -12 1 -19z"/>
<path d="M3132 4441 c-11 -6 -10 -10 0 -19 11 -8 14 -7 15 9 2 22 2 21 -15 10z"/>
<path d="M3200 4433 c0 -5 10 -18 23 -29 l22 -19 -20 25 c-11 14 -21 27 -22
29 -2 2 -3 0 -3 -6z"/>
<path d="M3253 4333 c-20 -7 -15 -22 7 -20 20 1 27 12 13 20 -5 2 -14 2 -20 0z"/>
<path d="M3390 4240 c-8 -5 -10 -10 -5 -10 6 0 17 5 25 10 8 5 11 10 5 10 -5
0 -17 -5 -25 -10z"/>
<path d="M3426 4234 c-10 -25 1 -29 14 -5 6 12 7 21 1 21 -5 0 -12 -7 -15 -16z"/>
<path d="M3400 4200 c0 -5 5 -10 11 -10 5 0 7 5 4 10 -3 6 -8 10 -11 10 -2 0
-4 -4 -4 -10z"/>
<path d="M2704 3622 c28 -70 59 -139 69 -152 l19 -25 -7 25 c-4 14 -13 35 -21
47 -8 12 -14 29 -14 37 0 18 -75 182 -87 189 -5 3 13 -51 41 -121z"/>
<path d="M2801 3404 c0 -11 3 -14 6 -6 3 7 2 16 -1 19 -3 4 -6 -2 -5 -13z"/>
<path d="M2370 1836 c0 -8 5 -18 10 -21 6 -3 10 1 10 9 0 8 -4 18 -10 21 -5 3
-10 -1 -10 -9z"/>
<path d="M2561 1601 c-9 -6 28 -9 96 -8 61 1 109 5 106 10 -6 10 -185 9 -202
-2z"/>
<path d="M1465 2550 c-3 -5 1 -10 9 -10 9 0 16 5 16 10 0 6 -4 10 -9 10 -6 0
-13 -4 -16 -10z"/>
<path d="M1136 2355 c-3 -9 -6 -22 -5 -28 0 -7 5 -1 10 12 5 13 8 26 5 28 -2
2 -6 -3 -10 -12z"/>
<path d="M3361 2364 c0 -11 3 -14 6 -6 3 7 2 16 -1 19 -3 4 -6 -2 -5 -13z"/>
<path d="M1235 1175 c-73 -53 -132 -72 -166 -55 -23 12 -23 12 -7 -6 37 -38
141 -5 206 64 50 55 47 55 -33 -3z"/>
<path d="M3809 1263 c-13 -16 -12 -17 4 -4 16 13 21 21 13 21 -2 0 -10 -8 -17
-17z"/>
<path d="M560 2786 c0 -2 8 -10 18 -17 15 -13 16 -12 3 4 -13 16 -21 21 -21
13z"/>
<path d="M1920 811 c0 -6 4 -13 10 -16 6 -3 7 1 4 9 -7 18 -14 21 -14 7z"/>
<path d="M1990 751 c0 -11 19 -24 38 -27 17 -3 5 13 -19 26 -12 7 -19 7 -19 1z"/>
<path d="M1919 693 c-13 -16 -12 -17 4 -4 16 13 21 21 13 21 -2 0 -10 -8 -17
-17z"/>
</g>
</svg>
