<?xml version="1.0" encoding="iso-8859-1"?>
<!-- Generator: Adobe Illustrator 19.0.0, SVG Export Plug-In . SVG Version: 6.00 Build 0)  -->
<svg version="1.1" id="Capa_1" xmlns="http://www.w3.org/2000/svg" xmlns:xlink="http://www.w3.org/1999/xlink" x="0px" y="0px"
	 viewBox="0 0 512 512" style="enable-background:new 0 0 512 512;" xml:space="preserve">
<circle style="fill:#35CCFF;" cx="256" cy="256" r="256"/>
<path style="fill:#00BAFF;" d="M512,256c0-12.456-0.908-24.698-2.627-36.678L409.268,119.217l-307.601,56.45l-33.499,187.29
	l145.547,145.547C227.472,510.791,241.594,512,256,512C397.385,512,512,397.385,512,256z"/>
<g>
	<rect x="140.91" y="119.22" style="fill:#4D4D4D;" width="268.36" height="273.57"/>
	<rect x="140.91" y="324.39" style="fill:#4D4D4D;" width="268.36" height="68.39"/>
</g>
<g>
	<rect x="266.36" y="324.39" style="fill:#333333;" width="142.91" height="68.39"/>
	<rect x="140.91" y="119.22" style="fill:#333333;" width="268.36" height="68.39"/>
</g>
<rect x="266.36" y="119.22" style="fill:#1A1A1A;" width="142.91" height="68.39"/>
<g>
	<rect x="266.36" y="187.61" style="fill:#333333;" width="142.91" height="68.39"/>
	<rect x="140.91" y="256" style="fill:#333333;" width="268.36" height="68.39"/>
</g>
<rect x="266.36" y="256" style="fill:#1A1A1A;" width="142.91" height="68.39"/>
<g>
	<circle style="fill:#8CC63F;" cx="373.58" cy="153.41" r="14.12"/>
	<circle style="fill:#8CC63F;" cx="373.58" cy="221.8" r="14.12"/>
	<circle style="fill:#8CC63F;" cx="373.58" cy="290.2" r="14.12"/>
	<circle style="fill:#8CC63F;" cx="373.58" cy="358.59" r="14.12"/>
</g>
<path style="fill:#FFFFFF;" d="M197.104,264.069h-25.061v-58.827c0-17.17-13.968-31.138-31.138-31.138
	c-17.169,0-31.138,13.969-31.138,31.139v58.827H84.706v-58.827c0-30.988,25.211-56.2,56.199-56.2s56.199,25.21,56.199,56.199
	V264.069z"/>
<path style="fill:#E0E0E0;" d="M141,149.046v25.061c17.126,0.051,31.043,13.998,31.043,31.136v58.827h25.061v-58.827
	C197.104,174.286,171.945,149.097,141,149.046z"/>
<rect x="68.17" y="238.09" style="fill:#FFDC00;" width="145.48" height="124.87"/>
<rect x="141" y="238.08" style="fill:#FFC000;" width="72.64" height="124.87"/>
<g>
</g>
<g>
</g>
<g>
</g>
<g>
</g>
<g>
</g>
<g>
</g>
<g>
</g>
<g>
</g>
<g>
</g>
<g>
</g>
<g>
</g>
<g>
</g>
<g>
</g>
<g>
</g>
<g>
</g>
</svg>
